<mxfile host="app.diagrams.net" agent="Mozilla/5.0 (Windows NT 10.0; Win64; x64) AppleWebKit/537.36 (KHTML, like Gecko) Chrome/109.0.0.0 Safari/537.36 SLBrowser/9.0.3.5211 SLBChan/25" version="24.8.0">
  <diagram name="第 1 页" id="pIQt6GRZelODplqzJtHg">
    <mxGraphModel dx="1865" dy="2359" grid="1" gridSize="10" guides="1" tooltips="1" connect="1" arrows="1" fold="1" page="1" pageScale="1" pageWidth="827" pageHeight="1169" math="0" shadow="0">
      <root>
        <mxCell id="0" />
        <mxCell id="1" parent="0" />
        <mxCell id="iBgcNBvuugV4CT68VX7O-1" value="&lt;p style=&quot;&quot; class=&quot;MsoNormal&quot;&gt;&lt;span style=&quot;font-family: 微软雅黑;&quot;&gt;&lt;font style=&quot;font-size: 28px;&quot; face=&quot;微软雅黑&quot;&gt;一体化防御&lt;/font&gt;&lt;/span&gt;&lt;/p&gt;" style="swimlane;whiteSpace=wrap;html=1;movable=1;resizable=1;rotatable=1;deletable=1;editable=1;locked=0;connectable=1;fillColor=#fff2cc;strokeColor=#d6b656;" parent="1" vertex="1">
          <mxGeometry x="190" y="-800" width="1560" height="442.5" as="geometry" />
        </mxCell>
        <mxCell id="dmnGctG5GKKny2EwXV30-73" value="" style="group" vertex="1" connectable="0" parent="iBgcNBvuugV4CT68VX7O-1">
          <mxGeometry x="10" y="32.5" width="1550" height="410" as="geometry" />
        </mxCell>
        <mxCell id="dmnGctG5GKKny2EwXV30-65" value="" style="rounded=0;whiteSpace=wrap;html=1;fillColor=#B1DDF0;" vertex="1" parent="dmnGctG5GKKny2EwXV30-73">
          <mxGeometry x="-10" y="-7.5" width="1560" height="417.5" as="geometry" />
        </mxCell>
        <mxCell id="dmnGctG5GKKny2EwXV30-6" value="" style="rounded=1;whiteSpace=wrap;html=1;fillColor=#FFFFE0;" vertex="1" parent="dmnGctG5GKKny2EwXV30-73">
          <mxGeometry y="7.5" width="440" height="320" as="geometry" />
        </mxCell>
        <mxCell id="iBgcNBvuugV4CT68VX7O-22" value="&lt;b&gt;&lt;font style=&quot;font-size: 17px;&quot;&gt;完整性&lt;/font&gt;&lt;/b&gt;" style="whiteSpace=wrap;html=1;fillColor=#B1DDF0;rounded=1;dashed=1;" parent="dmnGctG5GKKny2EwXV30-73" vertex="1">
          <mxGeometry x="171.5" y="66" width="80" height="40" as="geometry" />
        </mxCell>
        <mxCell id="iBgcNBvuugV4CT68VX7O-23" value="&lt;b&gt;&lt;font style=&quot;font-size: 17px;&quot;&gt;保密性&lt;/font&gt;&lt;/b&gt;" style="whiteSpace=wrap;html=1;fillColor=#B1DDF0;rounded=1;dashed=1;" parent="dmnGctG5GKKny2EwXV30-73" vertex="1">
          <mxGeometry x="32.5" y="67.5" width="80" height="40" as="geometry" />
        </mxCell>
        <mxCell id="iBgcNBvuugV4CT68VX7O-24" value="&lt;b&gt;&lt;font style=&quot;font-size: 17px;&quot;&gt;可用性&lt;/font&gt;&lt;/b&gt;" style="whiteSpace=wrap;html=1;fillColor=#B1DDF0;rounded=1;dashed=1;" parent="dmnGctG5GKKny2EwXV30-73" vertex="1">
          <mxGeometry x="310" y="67.5" width="80" height="40" as="geometry" />
        </mxCell>
        <mxCell id="iBgcNBvuugV4CT68VX7O-25" value="&lt;b&gt;&lt;font style=&quot;font-size: 17px;&quot;&gt;数据加密&lt;/font&gt;&lt;/b&gt;" style="whiteSpace=wrap;html=1;fillColor=#d5e8d4;strokeColor=#82b366;" parent="dmnGctG5GKKny2EwXV30-73" vertex="1">
          <mxGeometry x="32" y="217.5" width="80" height="40" as="geometry" />
        </mxCell>
        <mxCell id="iBgcNBvuugV4CT68VX7O-26" value="&lt;b&gt;&lt;font style=&quot;font-size: 17px;&quot;&gt;数据校验&lt;/font&gt;&lt;/b&gt;" style="whiteSpace=wrap;html=1;fillColor=#d5e8d4;strokeColor=#82b366;" parent="dmnGctG5GKKny2EwXV30-73" vertex="1">
          <mxGeometry x="167.5" y="217.5" width="80" height="40" as="geometry" />
        </mxCell>
        <mxCell id="iBgcNBvuugV4CT68VX7O-27" value="&lt;b&gt;&lt;font style=&quot;font-size: 17px;&quot;&gt;服务可用性保障&lt;/font&gt;&lt;/b&gt;" style="whiteSpace=wrap;html=1;fillColor=#d5e8d4;strokeColor=#82b366;" parent="dmnGctG5GKKny2EwXV30-73" vertex="1">
          <mxGeometry x="280" y="217.5" width="140" height="40" as="geometry" />
        </mxCell>
        <mxCell id="dmnGctG5GKKny2EwXV30-7" value="&lt;b&gt;&lt;font style=&quot;font-size: 30px;&quot;&gt;攻击意图分析&lt;/font&gt;&lt;/b&gt;" style="text;html=1;align=center;verticalAlign=middle;whiteSpace=wrap;rounded=0;" vertex="1" parent="dmnGctG5GKKny2EwXV30-73">
          <mxGeometry x="100" y="27.5" width="196" height="20" as="geometry" />
        </mxCell>
        <mxCell id="dmnGctG5GKKny2EwXV30-10" value="" style="html=1;shadow=0;dashed=0;align=center;verticalAlign=middle;shape=mxgraph.arrows2.twoWayArrow;dy=0.65;dx=22;rotation=90;fillColor=#fad7ac;strokeColor=#b46504;" vertex="1" parent="dmnGctG5GKKny2EwXV30-73">
          <mxGeometry x="14.75" y="142.25" width="115.5" height="40" as="geometry" />
        </mxCell>
        <mxCell id="dmnGctG5GKKny2EwXV30-12" value="" style="html=1;shadow=0;dashed=0;align=center;verticalAlign=middle;shape=mxgraph.arrows2.twoWayArrow;dy=0.65;dx=22;rotation=90;fillColor=#fad7ac;strokeColor=#b46504;" vertex="1" parent="dmnGctG5GKKny2EwXV30-73">
          <mxGeometry x="151.75" y="144.75" width="115" height="38.5" as="geometry" />
        </mxCell>
        <mxCell id="dmnGctG5GKKny2EwXV30-13" value="" style="html=1;shadow=0;dashed=0;align=center;verticalAlign=middle;shape=mxgraph.arrows2.twoWayArrow;dy=0.65;dx=22;rotation=90;fillColor=#fad7ac;strokeColor=#b46504;" vertex="1" parent="dmnGctG5GKKny2EwXV30-73">
          <mxGeometry x="296" y="141.5" width="110" height="45" as="geometry" />
        </mxCell>
        <mxCell id="dmnGctG5GKKny2EwXV30-14" value="" style="rounded=1;whiteSpace=wrap;html=1;fillColor=#FFFFE0;" vertex="1" parent="dmnGctG5GKKny2EwXV30-73">
          <mxGeometry x="1140" width="400" height="327.5" as="geometry" />
        </mxCell>
        <mxCell id="dmnGctG5GKKny2EwXV30-15" value="&lt;b&gt;&lt;font style=&quot;font-size: 17px;&quot;&gt;逃逸攻击&lt;/font&gt;&lt;/b&gt;" style="whiteSpace=wrap;html=1;fillColor=#B1DDF0;rounded=1;dashed=1;" vertex="1" parent="dmnGctG5GKKny2EwXV30-73">
          <mxGeometry x="1305" y="66" width="80" height="40" as="geometry" />
        </mxCell>
        <mxCell id="dmnGctG5GKKny2EwXV30-16" value="&lt;b&gt;&lt;font style=&quot;font-size: 17px;&quot;&gt;诱导攻击&lt;/font&gt;&lt;/b&gt;" style="whiteSpace=wrap;html=1;fillColor=#B1DDF0;rounded=1;dashed=1;" vertex="1" parent="dmnGctG5GKKny2EwXV30-73">
          <mxGeometry x="1170" y="66" width="80" height="40" as="geometry" />
        </mxCell>
        <mxCell id="dmnGctG5GKKny2EwXV30-17" value="&lt;b&gt;&lt;font style=&quot;font-size: 17px;&quot;&gt;探索攻击&lt;/font&gt;&lt;/b&gt;" style="whiteSpace=wrap;html=1;fillColor=#B1DDF0;rounded=1;dashed=1;" vertex="1" parent="dmnGctG5GKKny2EwXV30-73">
          <mxGeometry x="1425" y="66" width="80" height="40" as="geometry" />
        </mxCell>
        <mxCell id="dmnGctG5GKKny2EwXV30-18" value="&lt;b style=&quot;font-size: 17px;&quot;&gt;&lt;font style=&quot;font-size: 17px;&quot;&gt;防御诱导&lt;/font&gt;&lt;/b&gt;&lt;div style=&quot;font-size: 17px;&quot;&gt;&lt;b style=&quot;&quot;&gt;&lt;font style=&quot;font-size: 17px;&quot;&gt;攻击策略&lt;/font&gt;&lt;/b&gt;&lt;/div&gt;" style="whiteSpace=wrap;html=1;fillColor=#d5e8d4;strokeColor=#82b366;" vertex="1" parent="dmnGctG5GKKny2EwXV30-73">
          <mxGeometry x="1174" y="217.5" width="90" height="54" as="geometry" />
        </mxCell>
        <mxCell id="dmnGctG5GKKny2EwXV30-21" value="&lt;b&gt;&lt;font style=&quot;font-size: 30px;&quot;&gt;攻击种类分析&lt;/font&gt;&lt;/b&gt;" style="text;html=1;align=center;verticalAlign=middle;whiteSpace=wrap;rounded=0;" vertex="1" parent="dmnGctG5GKKny2EwXV30-73">
          <mxGeometry x="1240" y="20" width="196" height="20" as="geometry" />
        </mxCell>
        <mxCell id="dmnGctG5GKKny2EwXV30-22" value="" style="html=1;shadow=0;dashed=0;align=center;verticalAlign=middle;shape=mxgraph.arrows2.twoWayArrow;dy=0.65;dx=22;rotation=90;fillColor=#fad7ac;strokeColor=#b46504;" vertex="1" parent="dmnGctG5GKKny2EwXV30-73">
          <mxGeometry x="1155.75" y="143.25" width="116" height="42.5" as="geometry" />
        </mxCell>
        <mxCell id="dmnGctG5GKKny2EwXV30-26" value="&lt;b style=&quot;font-size: 17px;&quot;&gt;&lt;font style=&quot;font-size: 17px;&quot;&gt;防御逃逸&lt;/font&gt;&lt;/b&gt;&lt;div style=&quot;font-size: 17px;&quot;&gt;&lt;b style=&quot;&quot;&gt;&lt;font style=&quot;font-size: 17px;&quot;&gt;攻击策略&lt;/font&gt;&lt;/b&gt;&lt;/div&gt;" style="whiteSpace=wrap;html=1;fillColor=#d5e8d4;strokeColor=#82b366;" vertex="1" parent="dmnGctG5GKKny2EwXV30-73">
          <mxGeometry x="1300" y="217.5" width="90" height="54" as="geometry" />
        </mxCell>
        <mxCell id="dmnGctG5GKKny2EwXV30-27" value="&lt;b style=&quot;font-size: 17px;&quot;&gt;&lt;font style=&quot;font-size: 17px;&quot;&gt;防御探索&lt;/font&gt;&lt;/b&gt;&lt;div style=&quot;font-size: 17px;&quot;&gt;&lt;b style=&quot;&quot;&gt;&lt;font style=&quot;font-size: 17px;&quot;&gt;攻击策略&lt;/font&gt;&lt;/b&gt;&lt;/div&gt;" style="whiteSpace=wrap;html=1;fillColor=#d5e8d4;strokeColor=#82b366;" vertex="1" parent="dmnGctG5GKKny2EwXV30-73">
          <mxGeometry x="1420" y="217.5" width="90" height="54" as="geometry" />
        </mxCell>
        <mxCell id="dmnGctG5GKKny2EwXV30-32" value="" style="rounded=1;whiteSpace=wrap;html=1;fillColor=#FFFFE0;" vertex="1" parent="dmnGctG5GKKny2EwXV30-73">
          <mxGeometry x="470" y="7.5" width="630" height="320" as="geometry" />
        </mxCell>
        <mxCell id="dmnGctG5GKKny2EwXV30-37" value="&lt;b&gt;&lt;font style=&quot;font-size: 30px;&quot;&gt;攻击阶段分析&lt;/font&gt;&lt;/b&gt;" style="text;html=1;align=center;verticalAlign=middle;whiteSpace=wrap;rounded=0;" vertex="1" parent="dmnGctG5GKKny2EwXV30-73">
          <mxGeometry x="687" y="27.5" width="196" height="20" as="geometry" />
        </mxCell>
        <mxCell id="dmnGctG5GKKny2EwXV30-44" value="" style="rounded=1;whiteSpace=wrap;html=1;fillColor=#B1DDF0;dashed=1;strokeWidth=2;" vertex="1" parent="dmnGctG5GKKny2EwXV30-73">
          <mxGeometry x="490" y="67.5" width="270" height="250" as="geometry" />
        </mxCell>
        <mxCell id="dmnGctG5GKKny2EwXV30-46" value="&lt;b&gt;&lt;font style=&quot;font-size: 22px;&quot;&gt;模型训练阶段&lt;/font&gt;&lt;/b&gt;" style="text;html=1;align=center;verticalAlign=middle;whiteSpace=wrap;rounded=0;" vertex="1" parent="dmnGctG5GKKny2EwXV30-73">
          <mxGeometry x="530" y="77.5" width="180" height="30" as="geometry" />
        </mxCell>
        <mxCell id="dmnGctG5GKKny2EwXV30-47" value="" style="rounded=1;whiteSpace=wrap;html=1;fillColor=#B1DDF0;dashed=1;strokeWidth=2;" vertex="1" parent="dmnGctG5GKKny2EwXV30-73">
          <mxGeometry x="815" y="67.5" width="260" height="250" as="geometry" />
        </mxCell>
        <mxCell id="dmnGctG5GKKny2EwXV30-48" value="&lt;b&gt;&lt;font style=&quot;font-size: 22px;&quot;&gt;模型推理阶段&lt;/font&gt;&lt;/b&gt;" style="text;html=1;align=center;verticalAlign=middle;whiteSpace=wrap;rounded=0;" vertex="1" parent="dmnGctG5GKKny2EwXV30-73">
          <mxGeometry x="860" y="77.5" width="180" height="30" as="geometry" />
        </mxCell>
        <mxCell id="dmnGctG5GKKny2EwXV30-54" value="" style="group" vertex="1" connectable="0" parent="dmnGctG5GKKny2EwXV30-73">
          <mxGeometry x="520" y="127.5" width="210" height="140" as="geometry" />
        </mxCell>
        <mxCell id="dmnGctG5GKKny2EwXV30-49" value="" style="rounded=0;whiteSpace=wrap;html=1;fillColor=#fff2cc;strokeColor=#d6b656;" vertex="1" parent="dmnGctG5GKKny2EwXV30-54">
          <mxGeometry width="210" height="140" as="geometry" />
        </mxCell>
        <mxCell id="dmnGctG5GKKny2EwXV30-51" value="&lt;b&gt;&lt;font style=&quot;font-size: 20px;&quot;&gt;训练数据保护&lt;/font&gt;&lt;/b&gt;" style="text;html=1;align=center;verticalAlign=middle;whiteSpace=wrap;rounded=0;" vertex="1" parent="dmnGctG5GKKny2EwXV30-54">
          <mxGeometry x="27.5" y="20" width="155" height="30" as="geometry" />
        </mxCell>
        <mxCell id="dmnGctG5GKKny2EwXV30-53" value="&lt;b&gt;&lt;font style=&quot;font-size: 20px;&quot;&gt;模型参数保护&lt;/font&gt;&lt;/b&gt;" style="text;html=1;align=center;verticalAlign=middle;whiteSpace=wrap;rounded=0;" vertex="1" parent="dmnGctG5GKKny2EwXV30-54">
          <mxGeometry x="27.5" y="90" width="155" height="30" as="geometry" />
        </mxCell>
        <mxCell id="dmnGctG5GKKny2EwXV30-50" style="rounded=0;orthogonalLoop=1;jettySize=auto;html=1;exitX=0;exitY=0.5;exitDx=0;exitDy=0;entryX=1;entryY=0.5;entryDx=0;entryDy=0;endArrow=none;endFill=0;" edge="1" parent="dmnGctG5GKKny2EwXV30-54" source="dmnGctG5GKKny2EwXV30-49" target="dmnGctG5GKKny2EwXV30-49">
          <mxGeometry relative="1" as="geometry" />
        </mxCell>
        <mxCell id="dmnGctG5GKKny2EwXV30-63" value="" style="html=1;shadow=0;dashed=0;align=center;verticalAlign=middle;shape=mxgraph.arrows2.twoWayArrow;dy=0.65;dx=22;rotation=90;fillColor=#fad7ac;strokeColor=#b46504;" vertex="1" parent="dmnGctG5GKKny2EwXV30-73">
          <mxGeometry x="1287" y="140.5" width="116" height="42.5" as="geometry" />
        </mxCell>
        <mxCell id="dmnGctG5GKKny2EwXV30-64" value="" style="html=1;shadow=0;dashed=0;align=center;verticalAlign=middle;shape=mxgraph.arrows2.twoWayArrow;dy=0.65;dx=22;rotation=90;fillColor=#fad7ac;strokeColor=#b46504;" vertex="1" parent="dmnGctG5GKKny2EwXV30-73">
          <mxGeometry x="1407" y="140.5" width="116" height="42.5" as="geometry" />
        </mxCell>
        <mxCell id="dmnGctG5GKKny2EwXV30-68" value="" style="group" vertex="1" connectable="0" parent="1">
          <mxGeometry x="1041" y="-640" width="210" height="140" as="geometry" />
        </mxCell>
        <mxCell id="dmnGctG5GKKny2EwXV30-69" value="" style="rounded=0;whiteSpace=wrap;html=1;fillColor=#fff2cc;strokeColor=#d6b656;" vertex="1" parent="dmnGctG5GKKny2EwXV30-68">
          <mxGeometry width="210" height="140" as="geometry" />
        </mxCell>
        <mxCell id="dmnGctG5GKKny2EwXV30-70" value="&lt;b&gt;&lt;font style=&quot;font-size: 20px;&quot;&gt;输出结果验证&lt;/font&gt;&lt;/b&gt;" style="text;html=1;align=center;verticalAlign=middle;whiteSpace=wrap;rounded=0;" vertex="1" parent="dmnGctG5GKKny2EwXV30-68">
          <mxGeometry x="27.5" y="20" width="155" height="30" as="geometry" />
        </mxCell>
        <mxCell id="dmnGctG5GKKny2EwXV30-71" value="&lt;span style=&quot;font-size: 20px;&quot;&gt;&lt;b&gt;实时监控与响应&lt;/b&gt;&lt;/span&gt;" style="text;html=1;align=center;verticalAlign=middle;whiteSpace=wrap;rounded=0;" vertex="1" parent="dmnGctG5GKKny2EwXV30-68">
          <mxGeometry x="27.5" y="90" width="155" height="30" as="geometry" />
        </mxCell>
        <mxCell id="dmnGctG5GKKny2EwXV30-72" style="rounded=0;orthogonalLoop=1;jettySize=auto;html=1;exitX=0;exitY=0.5;exitDx=0;exitDy=0;entryX=1;entryY=0.5;entryDx=0;entryDy=0;endArrow=none;endFill=0;" edge="1" parent="dmnGctG5GKKny2EwXV30-68" source="dmnGctG5GKKny2EwXV30-69" target="dmnGctG5GKKny2EwXV30-69">
          <mxGeometry relative="1" as="geometry" />
        </mxCell>
      </root>
    </mxGraphModel>
  </diagram>
</mxfile>
